<?xml version="1.0" standalone="no"?>
<!DOCTYPE svg PUBLIC "-//W3C//DTD SVG 20010904//EN"
 "http://www.w3.org/TR/2001/REC-SVG-20010904/DTD/svg10.dtd">
<svg version="1.0" xmlns="http://www.w3.org/2000/svg"
 width="290.000000pt" height="290.000000pt" viewBox="0 0 290.000000 290.000000"
 preserveAspectRatio="xMidYMid meet">
<metadata>
Created by potrace 1.14, written by Peter Selinger 2001-2017
</metadata>
<g transform="translate(0.000000,290.000000) scale(0.100000,-0.100000)"
fill="#000000" stroke="none">
<path d="M1195 1838 c-44 -5 -113 -26 -195 -60 -152 -62 -221 -70 -392 -43
-120 18 -242 25 -253 13 -9 -9 10 -88 37 -150 l20 -47 22 41 c27 52 75 78 141
78 50 0 115 -25 123 -48 2 -6 -6 -16 -18 -22 -17 -9 -29 -8 -55 4 -44 21 -84
20 -114 -3 -19 -15 -25 -30 -29 -75 -4 -53 -3 -57 30 -90 37 -37 69 -41 113
-12 37 25 32 46 -11 46 -31 0 -35 3 -32 22 3 20 9 23 63 24 72 1 86 -7 75 -45
-18 -63 -58 -97 -131 -109 l-42 -7 53 -53 c84 -83 174 -139 255 -158 17 -3 91
-8 165 -10 104 -3 156 1 225 15 150 31 465 160 523 214 29 27 28 45 -8 87
l-29 35 -1 -61 c0 -61 0 -61 -30 -62 l-30 -1 0 79 c0 99 -4 110 -44 110 -52 0
-57 -9 -59 -100 -2 -82 -2 -83 -29 -86 l-28 -3 0 120 0 120 28 -5 c15 -2 29
-5 32 -6 6 -3 9 -2 45 4 15 3 29 7 32 9 6 6 -74 106 -121 151 -81 77 -182 103
-331 84z m-68 -259 c26 -15 40 -50 39 -94 l-1 -30 -87 0 c-89 0 -106 -8 -73
-35 10 -8 32 -11 59 -8 41 5 66 -4 66 -23 0 -15 -71 -31 -110 -24 -68 11 -104
67 -92 143 12 83 119 122 199 71z m301 -16 c16 -17 22 -36 22 -67 l0 -43 -90
2 c-49 1 -90 -1 -90 -5 0 -4 9 -15 20 -25 15 -13 30 -16 59 -12 49 6 82 -12
58 -32 -46 -37 -157 -14 -185 39 -20 40 -10 117 21 147 48 48 139 46 185 -4z
m-593 27 c4 -6 15 -5 30 2 32 14 55 5 48 -21 -4 -15 -13 -21 -34 -21 -36 0
-38 -5 -42 -105 -2 -79 -2 -80 -29 -82 l-28 -2 0 120 0 119 24 0 c14 0 27 -4
31 -10z"/>
<path d="M1018 1549 c-10 -5 -22 -19 -28 -29 -10 -19 -7 -20 54 -20 58 0 65 2
59 18 -13 37 -51 51 -85 31z"/>
<path d="M1290 1540 c-32 -32 -24 -40 40 -40 66 0 79 15 38 44 -30 21 -54 20
-78 -4z"/>
<path d="M1790 1591 c0 -3 17 -55 38 -116 38 -107 39 -110 70 -111 30 -2 33 2
52 55 11 31 23 63 27 71 3 9 15 -14 30 -56 22 -67 25 -71 53 -70 16 1 31 4 35
7 3 4 23 55 44 116 l38 109 -29 -1 c-35 -1 -39 -7 -63 -99 l-18 -68 -27 83
c-27 79 -30 84 -58 85 -29 1 -31 -2 -51 -65 -12 -37 -21 -72 -21 -79 0 -30
-18 2 -39 71 -22 69 -25 73 -52 73 -16 0 -29 -2 -29 -5z"/>
<path d="M2231 1586 c-31 -17 -9 -47 27 -37 35 10 63 6 73 -11 15 -23 10 -27
-21 -18 -27 8 -57 4 -102 -15 -27 -11 -38 -56 -23 -93 17 -39 76 -60 124 -44
17 6 33 7 36 3 2 -5 15 -8 27 -7 22 1 23 6 26 76 2 41 0 85 -3 98 -12 49 -108
77 -164 48z m104 -141 c0 -23 -5 -30 -25 -35 -34 -9 -59 -1 -70 21 -15 27 14
51 59 47 33 -3 36 -6 36 -33z"/>
<path d="M2420 1590 c0 -3 20 -55 43 -116 l44 -111 -19 -47 -18 -47 32 3 c31
3 32 5 89 158 32 85 58 157 59 160 0 3 -13 6 -29 6 -28 2 -30 -2 -56 -82 -15
-46 -28 -84 -31 -84 -2 0 -15 37 -29 83 -25 78 -27 82 -55 82 -17 1 -30 -2
-30 -5z"/>
</g>
</svg>
